<?xml version="1.0" standalone="no"?>
<!DOCTYPE svg PUBLIC "-//W3C//DTD SVG 20010904//EN"
 "http://www.w3.org/TR/2001/REC-SVG-20010904/DTD/svg10.dtd">
<svg version="1.0" xmlns="http://www.w3.org/2000/svg"
 width="290.000000pt" height="355.000000pt" viewBox="0 0 290.000000 355.000000"
 preserveAspectRatio="xMidYMid meet">
<metadata>
Created by potrace 1.16, written by Peter Selinger 2001-2019
</metadata>
<g transform="translate(0.000000,355.000000) scale(0.100000,-0.100000)"
fill="#000000" stroke="none">
<path d="M524 3450 c-77 -16 -201 -70 -242 -106 -51 -43 -69 -97 -51 -152 6
-20 34 -83 61 -139 l49 -101 30 15 c78 39 242 7 307 -59 61 -64 62 -71 62
-468 l0 -360 -297 -1 c-164 -1 -310 0 -325 1 -16 1 -28 -3 -28 -9 0 -6 69 -83
153 -171 l152 -159 173 -1 172 0 0 -560 c0 -520 1 -563 18 -608 56 -147 257
-337 449 -424 130 -59 253 -71 433 -43 145 22 234 50 365 115 147 73 260 157
385 286 208 216 335 427 402 671 30 107 32 413 5 513 -27 98 -99 237 -161 312
-130 157 -255 218 -446 218 -207 0 -327 -64 -403 -215 -48 -97 -59 -220 -32
-350 21 -99 57 -166 120 -224 79 -71 142 -93 288 -99 l118 -4 -7 -47 c-27
-187 -138 -379 -321 -551 -180 -172 -340 -250 -508 -250 -122 0 -207 32 -268
99 -76 85 -72 45 -75 634 l-3 527 263 0 263 0 -170 170 -170 170 -91 0 -92 0
-5 423 c-4 385 -6 430 -26 511 -45 193 -156 354 -282 411 -68 30 -188 42 -265
25z"/>
</g>
</svg>
